<svg width="2316" height="246" viewBox="0 0 2316 246" fill="none" xmlns="http://www.w3.org/2000/svg">
<path d="M45.5649 0H292.834L259.749 175.875L0 245.818L45.5649 0Z" fill="#E6212A"/>
<path d="M186.032 223.471L253.364 214.764L244.077 245.528H186.032H15.962L186.032 223.471Z" fill="#E6212A"/>
<path d="M158.171 70.2338H176.165L154.398 164.266C150.338 172.387 141.882 177.362 132.811 176.968L127.698 176.745L127.174 176.636C122.952 175.757 119.032 173.794 115.799 170.941L112.316 164.846V155.269L112.606 150.045L112.897 145.692L78.3602 144.821L114.928 139.887L129.73 138.436L127.118 157.591V158.697C127.118 159.306 127.259 159.905 127.531 160.45L127.554 160.495C127.841 161.068 128.239 161.578 128.725 161.995C129.567 162.717 130.614 163.154 131.719 163.247L132.175 163.285C133.038 163.356 133.902 163.155 134.644 162.71L136.012 161.89C136.273 161.733 136.513 161.545 136.729 161.33C137.281 160.778 137.715 160.119 138.005 159.394L138.146 159.042L158.171 70.2338Z" fill="white"/>
<path d="M188.645 70.8142L205.187 71.3947L206.745 71.7522C216.08 73.8946 222.524 82.4365 222.02 92.0005L221.44 100.707L219.408 114.348L216.796 125.666L213.023 139.307L209.541 150.045L206.086 158.336C205.491 159.764 204.664 161.084 203.639 162.243L202.651 163.36C199.916 166.452 196.63 169.01 192.961 170.904C190.69 172.076 188.195 172.752 185.643 172.886L161.944 174.133L163.395 168.039L165.137 160.493H175.967C177.636 160.493 179.294 160.224 180.877 159.696L182.549 159.139C184.458 158.502 186.193 157.43 187.616 156.007C189.063 154.561 190.219 152.852 191.025 150.972L193.288 145.692L201.414 114.348L204.824 94.1496C205.056 92.7757 204.722 91.3664 203.898 90.2429C202.649 88.5395 200.994 87.1759 199.082 86.2765L198.273 85.8954C197.475 85.52 196.604 85.3254 195.722 85.3254H185.162L188.645 70.8142Z" fill="white"/>
<path d="M81.0389 153.974H97.2467L93.1948 173.954H76.987L81.0389 153.974Z" fill="white"/>
<path d="M98.5976 70.2338H114.13H125.98C127.517 70.2338 129.037 70.56 130.439 71.1909L134.201 72.8838C139.011 75.0486 142.565 79.298 143.844 84.4156L144.155 87.3643C144.845 93.9203 144.614 100.541 143.468 107.033C142.002 115.34 136.76 122.494 129.282 126.396L125.611 128.312L122.909 128.987H102.901L104.046 122.909L105.574 114.805H118.857L123.018 112.536C125.126 111.386 126.75 109.516 127.593 107.268L128.312 105.351L128.987 101.974L129.663 95.8962V93.8702V91.8442V90.6296C129.663 90.0922 129.576 89.5583 129.406 89.0485L129.09 88.1002C129.022 87.8962 128.921 87.7046 128.792 87.5326L128.236 86.7906C127.398 85.6729 126.311 84.7657 125.061 84.1408L124.26 83.7403H111.429L101.299 137.487H85.0911L98.5976 70.2338Z" fill="white"/>
<path d="M423.407 54.0836H358.834V191.735H397.501V149.974H423.407C456.657 149.974 476.183 131.032 476.183 102.032C476.183 73.0315 456.657 54.0836 423.407 54.0836ZM397.501 117.495V86.5628H420.506C430.751 86.5628 437.714 91.5888 437.714 102.032C437.714 112.469 430.751 117.495 420.506 117.495H397.501Z" fill="#E6212A"/>
<path d="M606.103 159.448C605.519 144.755 603.202 133.157 587.155 127.162C601.848 120.589 608.613 108.214 608.613 94.8753C608.613 73.417 594.889 54.0836 557.384 54.0836H489.717V191.735H528.384V144.177H548.488C559.316 144.177 566.66 146.495 567.243 162.157L567.822 177.813C568.014 183.808 568.79 188.063 570.53 191.735H610.353C608.421 188.448 607.066 183.615 606.874 177.813L606.103 159.448ZM528.384 84.2451H551.582C562.988 84.2451 568.79 90.2347 568.79 100.094C568.79 110.151 562.988 115.948 551.582 115.948H528.384V84.2451Z" fill="#E6212A"/>
<path d="M661.587 191.735V54.0836H622.92V191.735H661.587Z" fill="#E6212A"/>
<path d="M767.143 106.282C764.825 115.755 762.31 126 760.185 135.865C758.06 126 755.544 115.755 753.226 106.282L740.075 54.0836H680.919V191.735H717.653V152.683C717.653 129.677 717.461 110.344 716.492 88.3024C719.002 98.3545 721.325 107.25 724.612 118.849L744.523 191.735H775.846L795.757 118.849C799.044 107.25 801.362 98.3545 803.877 88.3024C802.909 110.344 802.716 129.677 802.716 152.683V191.735H839.45V54.0836H780.289L767.143 106.282Z" fill="#E6212A"/>
<path d="M994.114 191.735L943.458 54.0836H897.062L848.145 191.735H887.588L893.385 173.755H947.328L953.125 191.735H994.114ZM913.494 110.151C915.812 102.995 917.937 95.6513 920.067 88.3024C922 95.6513 924.317 102.995 926.64 110.151L936.885 141.854H903.442L913.494 110.151Z" fill="#E6212A"/>
<path d="M1095.61 194.828C1129.83 194.828 1147.03 174.334 1147.03 150.167V54.0836H1108.37V148.818C1108.37 156.354 1103.53 161.38 1095.22 161.38C1086.91 161.38 1082.07 156.354 1082.07 148.818V141.469H1045.15V150.167C1045.15 177.427 1064.29 194.828 1095.61 194.828Z" fill="#E6212A"/>
<path d="M1299.77 191.735L1249.11 54.0836H1202.71L1153.8 191.735H1193.24L1199.04 173.755H1252.98L1258.78 191.735H1299.77ZM1219.15 110.151C1221.46 102.995 1223.59 95.6513 1225.72 88.3024C1227.65 95.6513 1229.97 102.995 1232.29 110.151L1242.54 141.854H1209.09L1219.15 110.151Z" fill="#E6212A"/>
<path d="M1387.34 69.3545C1381.35 79.9899 1374.97 91.7815 1369.17 103.188C1362.98 91.9742 1356.6 80.7607 1350.22 69.5524L1341.33 54.0836H1297.83L1349.06 138.761V191.735H1387.73V138.761L1438.19 54.0836H1395.85L1387.34 69.3545Z" fill="#E6212A"/>
<path d="M1582.22 191.735L1531.56 54.0836H1485.17L1436.25 191.735H1475.69L1481.49 173.755H1535.43L1541.23 191.735H1582.22ZM1501.6 110.151C1503.92 102.995 1506.04 95.6513 1508.17 88.3024C1510.1 95.6513 1512.42 102.995 1514.74 110.151L1524.99 141.854H1491.55L1501.6 110.151Z" fill="#E6212A"/>
<path d="M1699.18 54.0836H1639.05V191.735H1699.18C1748.48 191.735 1770.52 163.511 1770.52 122.912C1770.52 82.3076 1748.48 54.0836 1699.18 54.0836ZM1677.72 159.255V86.5628H1698.41C1716.77 86.5628 1730.3 96.0367 1730.3 122.912C1730.3 149.782 1716.77 159.255 1698.41 159.255H1677.72Z" fill="#E6212A"/>
<path d="M1822.72 191.735V54.0836H1784.05V191.735H1822.72Z" fill="#E6212A"/>
<path d="M1950.7 54.0836H1842.05V191.735H1950.7V157.323H1880.71V138.953H1944.51V106.474H1880.71V88.4951H1950.7V54.0836Z" fill="#E6212A"/>
<path d="M2019.91 194.828C2055.87 194.828 2080.61 180.907 2080.61 150.167C2080.61 125.615 2065.15 112.854 2031.51 107.25L2020.1 105.318C2006.37 102.995 1999.99 100.094 1999.99 91.7815C1999.99 84.6305 2005.41 80.3753 2017.59 80.3753C2032.67 80.3753 2038.85 85.594 2039.44 96.4222H2075.78C2074.23 66.2659 2053.35 50.9899 2017.01 50.9899C1978.34 50.9899 1960.56 69.7451 1960.56 93.5211C1960.56 118.464 1977.18 132.964 2008.31 137.99L2019.14 139.729C2035.96 142.438 2040.79 145.141 2040.79 153.068C2040.79 160.802 2034.6 165.443 2019.53 165.443C2006.37 165.443 1995.94 162.735 1995.55 146.495H1958.43C1958.43 174.719 1978.34 194.828 2019.91 194.828Z" fill="#E6212A"/>
<path d="M2201.83 54.0836H2093.18V191.735H2201.83V157.323H2131.85V138.953H2195.64V106.474H2131.85V88.4951H2201.83V54.0836Z" fill="#E6212A"/>
<path d="M2255 54.0836H2216.33V191.735H2315.89V157.323H2255V54.0836Z" fill="#E6212A"/>
</svg>
